<?xml version="1.0" standalone="no"?>
<!DOCTYPE svg PUBLIC "-//W3C//DTD SVG 20010904//EN"
 "http://www.w3.org/TR/2001/REC-SVG-20010904/DTD/svg10.dtd">
<svg version="1.0" xmlns="http://www.w3.org/2000/svg"
 width="128.000000pt" height="128.000000pt" viewBox="0 0 128.000000 128.000000"
 preserveAspectRatio="xMidYMid meet">

<g transform="translate(0.000000,128.000000) scale(0.100000,-0.100000)"
fill="#000000" stroke="none">
<path d="M536 1270 c-205 -37 -377 -163 -463 -340 -53 -109 -67 -172 -67 -290
0 -118 14 -181 67 -290 77 -159 241 -289 417 -331 71 -17 229 -17 300 0 176
42 340 172 417 331 53 109 67 172 67 290 0 118 -14 181 -67 290 -75 154 -229
281 -397 325 -70 19 -210 27 -274 15z m455 -280 c22 -12 25 -52 8 -132 -29
-139 -128 -280 -232 -331 -56 -27 -148 -52 -168 -45 -6 2 14 23 45 47 60 46
69 65 64 127 -3 37 -5 39 -42 42 -54 5 -85 -12 -129 -70 -21 -27 -41 -48 -43
-45 -9 8 25 136 47 179 12 23 43 62 69 88 100 98 313 176 381 140z m-469 -166
c4 -3 -7 -34 -23 -68 -16 -34 -33 -89 -37 -121 l-7 -59 -88 -39 c-124 -54
-128 -47 -52 99 73 139 99 173 145 184 46 10 55 11 62 4z m154 -167 c11 -30
-20 -68 -123 -148 -131 -102 -142 -110 -122 -82 74 103 185 233 202 236 12 2
26 5 30 6 4 0 10 -5 13 -12z m-268 -195 c-59 -77 -60 -79 -48 -102 16 -30 36
-25 105 30 88 70 118 66 42 -5 -82 -75 -247 -159 -247 -126 0 59 179 323 188
277 2 -9 -16 -42 -40 -74z m430 7 c-7 -64 -23 -81 -154 -153 -134 -73 -153
-80 -161 -60 -5 13 48 155 66 176 3 4 39 14 79 22 40 8 92 26 115 40 23 13 46
24 51 25 5 1 6 -22 4 -50z"/>
<path d="M883 923 c-21 -8 -16 -61 6 -68 30 -9 51 5 51 35 0 33 -24 47 -57 33z"/>
<path d="M738 833 c-9 -10 -19 -28 -22 -40 -8 -26 16 -78 39 -87 79 -30 153
66 95 124 -26 26 -91 27 -112 3z"/>
</g>
</svg>
